<svg version="1.1" id="Layer_1" xmlns="http://www.w3.org/2000/svg" xmlns:xlink="http://www.w3.org/1999/xlink" x="0px" y="0px"
	 width="100%" viewBox="0 0 1024 1024" enable-background="new 0 0 1024 1024" xml:space="preserve">
<path fill="#1B5E20" opacity="1.000000" stroke="none" 
	d="
M132.866028,614.182251 
	C102.103951,590.914246 85.213554,559.991577 80.661552,522.398743 
	C77.438065,495.777466 79.531090,469.571106 90.632561,444.681458 
	C110.217056,400.772766 144.042587,373.693237 191.225281,367.271606 
	C241.847672,360.381897 284.038940,378.779083 314.366028,420.459381 
	C327.683990,438.762970 336.077850,459.737457 337.376434,482.886108 
	C337.638153,487.551483 339.203979,490.461151 344.645264,489.811310 
	C347.765533,489.438660 350.965302,489.608917 354.123871,489.707855 
	C358.895111,489.857269 360.676910,492.663574 358.073853,496.562531 
	C347.995667,511.657837 337.752136,526.643982 327.437805,541.579407 
	C325.078705,544.995422 322.659088,543.309998 320.475403,540.979431 
	C309.769562,529.553467 299.036987,518.152527 288.321594,506.735535 
	C285.472473,503.699829 282.570251,500.707886 279.852356,497.557831 
	C278.589355,496.093872 277.000916,494.415588 278.115601,492.216583 
	C279.165039,490.146210 281.380829,490.054321 283.351044,489.967712 
	C287.676910,489.777557 292.010284,489.719482 296.341125,489.694672 
	C299.494446,489.676575 300.763824,488.695374 300.145294,485.130798 
	C293.175293,444.963074 270.127808,418.281677 231.328705,406.920929 
	C199.730881,397.668793 171.364899,406.866241 147.382324,428.735718 
	C124.332016,449.755096 113.820244,476.675598 115.552109,507.516296 
	C118.163040,554.011292 149.158768,592.228882 194.763184,601.277649 
	C216.805603,605.651184 236.873856,599.285156 255.835220,588.290222 
	C269.966522,580.096008 279.637939,567.706421 288.218719,554.268433 
	C291.830261,548.612427 293.067749,548.435669 297.909424,553.424805 
	C303.826477,559.522034 309.511963,565.857422 315.646332,571.725281 
	C319.209961,575.134094 319.446625,577.933228 316.608551,581.930298 
	C296.999512,609.547363 271.571503,629.247559 238.371704,637.093689 
	C199.971970,646.168762 164.864853,637.547607 132.866028,614.182251 
z"/>
<path fill="#DBBEA1" opacity="1.000000" stroke="none" 
	d="
M172.560120,574.751465 
	C168.528931,564.294495 171.489777,554.467529 174.205093,544.711365 
	C179.474136,525.779663 189.750610,509.878082 204.034271,496.479950 
	C204.953384,495.617828 206.269333,494.936584 206.186218,492.912354 
	C203.203934,493.421814 201.050629,495.205902 198.888794,496.893280 
	C182.630783,509.583008 172.260849,526.411804 164.858215,545.333557 
	C164.297958,546.765686 164.722916,549.087219 162.459351,549.246460 
	C160.166046,549.407715 159.567825,547.241150 158.825745,545.644592 
	C151.406281,529.682068 152.046204,513.281799 156.938599,496.928986 
	C159.711456,487.660736 164.013382,479.098358 170.773148,471.769257 
	C182.342957,459.225098 197.657944,453.924866 213.328110,450.179962 
	C226.766785,446.968292 240.373596,444.725189 252.913910,438.570099 
	C253.618729,438.224182 254.484207,438.205566 255.188766,438.053223 
	C256.775452,439.562775 257.215790,441.298309 257.286560,443.162750 
	C257.754730,455.497742 257.259583,467.822296 255.994568,480.074677 
	C255.109894,488.643066 254.276077,497.229370 252.629547,505.735291 
	C249.663834,521.056152 241.870285,533.325317 229.570374,542.515930 
	C218.100189,551.086548 205.287033,556.947571 190.773529,558.393005 
	C188.796249,558.589966 186.821716,558.986389 184.894058,559.478882 
	C177.799240,561.291565 175.638336,563.834900 174.435013,571.074219 
	C174.213470,572.407043 175.538528,574.602722 172.560120,574.751465 
z"/>
<path fill="#1B5E20" opacity="1.000000" stroke="none" 
	d="
M891.510620,471.621826 
	C895.836609,481.521667 899.073364,491.482880 903.921631,500.877167 
	C906.120850,499.670898 906.420654,497.757751 907.073486,496.149231 
	C913.143555,481.193451 919.240540,466.247314 925.114685,451.214355 
	C926.390442,447.949493 928.041443,446.475983 931.675476,446.636780 
	C937.826965,446.909027 944.014648,446.976166 950.157898,446.621857 
	C954.900513,446.348297 956.470581,447.851471 956.428162,452.747284 
	C956.204773,478.565796 956.320740,504.387177 956.317139,530.207581 
	C956.315918,539.036438 956.168884,547.868591 956.371094,556.692688 
	C956.458862,560.524658 955.226990,562.186829 951.260010,562.001953 
	C946.605957,561.784973 941.934204,561.958435 937.270081,561.944824 
	C934.778870,561.937561 933.323059,561.240906 933.369995,558.170227 
	C933.660583,539.184265 933.670532,520.193787 933.982056,501.208313 
	C934.076599,495.445160 935.080566,489.697937 934.258118,482.644653 
	C930.922668,490.505798 927.994080,497.288513 925.161560,504.111115 
	C920.759277,514.714722 916.278076,525.289734 912.140137,535.996582 
	C910.788635,539.493652 908.650391,540.456604 905.293457,540.174683 
	C901.652344,539.868835 897.737915,541.169434 895.737488,536.107239 
	C889.990234,521.564087 883.866882,507.169281 877.849548,492.733582 
	C876.788391,490.187927 875.525574,487.726379 873.967957,484.396637 
	C872.526123,493.912720 874.135681,502.309692 874.243408,510.728699 
	C874.437317,525.874756 874.051819,541.038452 875.296509,556.151062 
	C875.694763,560.986877 873.617676,562.318604 869.244202,562.069519 
	C865.259338,561.842468 861.240845,561.838867 857.256531,562.070190 
	C853.095032,562.311829 851.746399,560.589478 851.777344,556.508972 
	C851.935303,535.687500 851.886963,514.864441 851.895569,494.041931 
	C851.901306,480.049164 851.997986,466.054749 851.801819,452.064606 
	C851.743408,447.897644 853.231934,446.486450 857.321045,446.643127 
	C863.808228,446.891663 870.316284,446.847321 876.806946,446.646912 
	C880.140381,446.543976 882.009155,447.755432 883.188782,450.878113 
	C885.775818,457.726440 888.623718,464.476196 891.510620,471.621826 
z"/>
<path fill="#1B5E20" opacity="1.000000" stroke="none" 
	d="
M782.085815,534.006531 
	C782.078918,542.167114 781.986877,549.830139 782.110107,557.489746 
	C782.157471,560.435120 781.150024,561.743652 778.106201,561.724487 
	C772.780884,561.690979 767.453369,561.863525 762.128113,561.999817 
	C758.914917,562.082031 757.773254,560.515259 757.778076,557.395569 
	C757.832764,522.085022 757.827148,486.774475 757.801514,451.463898 
	C757.799438,448.586456 758.396118,446.571564 761.904541,446.693481 
	C776.197144,447.190094 790.531494,445.730988 804.796021,447.581970 
	C820.519714,449.622284 830.824463,460.013763 832.165222,475.834290 
	C832.695557,482.091919 832.824341,488.446075 831.408020,494.724426 
	C829.759338,502.032745 826.381104,508.308990 819.923584,512.131348 
	C815.395996,514.811401 815.210632,517.313721 817.457825,521.656982 
	C823.117065,532.594849 828.345825,543.755981 833.700012,554.850281 
	C834.621399,556.759399 836.005066,558.530945 835.901978,561.575928 
	C828.238281,562.431641 820.519775,561.991516 812.819702,561.709473 
	C810.785767,561.635010 810.415161,559.636353 809.747681,558.156860 
	C804.477966,546.475281 798.977539,534.888000 794.095886,523.045898 
	C792.072388,518.137146 788.500305,519.151978 785.028259,519.302307 
	C781.078003,519.473267 782.257019,522.746704 782.127319,525.015564 
	C781.965881,527.837830 782.087219,530.676208 782.085815,534.006531 
M782.111267,479.522675 
	C782.112610,482.510223 782.084961,485.498077 782.120239,488.485229 
	C782.274963,501.597168 780.428833,499.532074 793.585510,499.629303 
	C803.109314,499.699677 807.224670,496.438263 808.415833,487.226379 
	C809.827515,476.308990 806.993835,465.397583 791.313293,466.264435 
	C781.145447,466.826538 782.131836,465.251129 782.111267,479.522675 
z"/>
<path fill="#1B5E20" opacity="1.000000" stroke="none" 
	d="
M443.243866,530.619263 
	C442.126099,528.151855 440.882446,526.101929 440.289337,523.878418 
	C438.851990,518.490051 434.772369,518.919739 430.752106,519.284668 
	C427.544006,519.575806 428.090515,522.236450 428.076447,524.287170 
	C428.004364,534.781799 427.809296,545.283264 428.108337,555.769470 
	C428.248718,560.690613 426.373169,562.303406 421.713165,562.020142 
	C417.397400,561.757874 413.053467,561.915771 408.722656,561.960083 
	C405.824036,561.989685 404.592651,560.770081 404.598267,557.753235 
	C404.664612,522.102478 404.651001,486.451477 404.649567,450.800568 
	C404.649475,448.639374 404.863434,446.695129 407.736633,446.757629 
	C422.035614,447.068512 436.409943,445.484680 450.624207,447.562744 
	C466.715210,449.915161 474.950562,457.372742 477.651581,473.148224 
	C479.689301,485.049377 479.496399,497.161591 471.180145,507.377533 
	C469.931030,508.911957 468.477661,510.346619 466.897949,511.533630 
	C460.814117,516.105164 460.501038,514.368042 464.470795,522.544128 
	C470.141876,534.224304 475.819885,545.901123 481.486420,557.583496 
	C481.985138,558.611755 482.721558,559.583130 482.295227,561.521545 
	C474.461487,562.246155 466.429474,562.223694 458.397491,561.588257 
	C456.687408,561.452881 456.308929,559.632690 455.700806,558.280273 
	C451.605499,549.172607 447.509613,540.065186 443.243866,530.619263 
M428.135071,493.307037 
	C427.379517,498.350494 429.478607,500.349213 434.559357,499.700623 
	C437.183075,499.365662 439.883179,499.671844 442.545654,499.588257 
	C446.698853,499.457825 450.091492,497.580414 451.994873,494.001007 
	C455.648682,487.130066 455.994629,479.842255 452.345215,472.931641 
	C449.226440,467.025940 443.425415,465.989899 437.268829,466.343628 
	C435.940826,466.419952 434.601074,466.421814 433.273132,466.345947 
	C429.695068,466.141510 428.080841,467.772186 428.117767,471.368408 
	C428.189667,478.362244 428.126648,485.357452 428.135071,493.307037 
z"/>
<path fill="#1B5E20" opacity="1.000000" stroke="none" 
	d="
M723.403442,453.531616 
	C731.469299,460.057770 735.469177,468.554962 737.245850,478.115967 
	C740.396851,495.073059 740.997437,512.155334 738.078857,529.197021 
	C734.431641,550.493469 718.900513,563.807983 697.644348,564.303894 
	C675.096436,564.829895 659.425537,553.130432 654.460571,531.446228 
	C649.601929,510.226471 650.655762,489.124969 657.754761,468.529083 
	C664.332458,449.445374 681.233459,443.753967 697.734802,444.224579 
	C707.088623,444.491364 715.760315,447.209869 723.403442,453.531616 
M699.714417,543.614258 
	C707.376526,541.443481 711.668579,536.058350 713.603088,528.653992 
	C717.900330,512.206299 717.022827,495.730103 713.360779,479.324280 
	C712.405212,475.043365 710.214905,471.262573 706.756165,468.385315 
	C696.465515,459.824524 682.796631,464.994476 678.450256,479.050385 
	C676.414978,485.632111 676.279785,492.484863 675.656555,499.241974 
	C674.687988,509.742462 675.455200,520.210388 678.577698,530.311401 
	C681.808533,540.763245 687.952698,544.593994 699.714417,543.614258 
z"/>
<path fill="#1B5E20" opacity="1.000000" stroke="none" 
	d="
M549.972168,542.649536 
	C561.751770,542.805969 560.274536,541.355713 560.323669,552.460144 
	C560.370850,563.124512 561.306824,561.890930 551.099731,561.925110 
	C535.276489,561.978027 519.451965,561.871887 503.630737,562.064453 
	C499.510406,562.114624 498.030731,560.647400 498.037872,556.576782 
	C498.099030,521.765503 498.079681,486.953857 497.960571,452.142792 
	C497.946899,448.140594 499.156891,446.569946 503.394440,446.618256 
	C520.548523,446.813843 537.706970,446.790894 554.861633,446.627411 
	C558.842041,446.589478 560.415894,447.654358 560.435608,451.926819 
	C560.502380,466.374084 560.655029,466.374786 546.123047,466.387482 
	C539.627014,466.393158 533.129517,466.473541 526.635559,466.358765 
	C523.421753,466.301941 522.134827,467.651428 522.184692,470.823303 
	C522.278931,476.817932 522.398071,482.825348 522.110718,488.808441 
	C521.901367,493.166962 523.894470,494.187836 527.787415,494.150940 
	C536.109070,494.072021 544.434570,494.431335 552.757019,494.378082 
	C555.442078,494.360931 556.312134,495.333893 556.254211,497.855347 
	C556.158508,502.017181 556.138062,506.185608 556.262329,510.346008 
	C556.354492,513.430115 554.894653,514.385254 552.013367,514.355103 
	C543.686096,514.268005 535.353699,514.478882 527.030518,514.276245 
	C523.282166,514.184998 522.024414,515.591064 522.147278,519.228699 
	C522.349548,525.218323 522.403320,531.227844 522.147034,537.213013 
	C521.973755,541.258728 523.241577,542.890503 527.493469,542.726440 
	C534.811584,542.443909 542.148438,542.649109 549.972168,542.649536 
z"/>
<path fill="#1B5E20" opacity="1.000000" stroke="none" 
	d="
M635.330261,515.426636 
	C626.118225,516.331238 617.276978,515.982300 608.460083,515.786316 
	C604.527588,515.698914 603.190857,516.698486 603.268616,520.746399 
	C603.498779,532.739990 603.156860,544.745605 603.455078,556.736206 
	C603.562134,561.040833 602.014954,562.297424 598.042786,562.100525 
	C593.387695,561.869873 588.714539,561.905090 584.051270,561.971558 
	C580.940186,562.015869 579.605591,560.854797 579.612732,557.559265 
	C579.688721,522.065369 579.685791,486.571136 579.611755,451.077209 
	C579.605042,447.879395 580.688843,446.634796 583.935547,446.651459 
	C601.098816,446.739563 618.263000,446.736603 635.426270,446.641907 
	C638.592224,446.624451 640.046875,447.707672 639.930054,450.965820 
	C639.787048,454.949951 639.761963,458.943695 639.856140,462.929260 
	C639.929077,466.016907 638.108826,466.416748 635.665710,466.405487 
	C627.167358,466.366302 618.668579,466.370209 610.170227,466.405609 
	C604.402222,466.429626 603.434509,467.353241 603.370605,473.030945 
	C603.303101,479.029175 603.475281,485.032104 603.308899,491.026489 
	C603.212036,494.516144 604.621948,495.720428 608.043274,495.668335 
	C617.515503,495.524078 626.991455,495.618347 637.175537,495.618347 
	C636.582886,502.441956 639.240112,509.029205 635.330261,515.426636 
z"/>
</svg>